<?xml version="1.0" encoding="UTF-8"?>
<svg id="_图层_1" data-name="图层_1" xmlns="http://www.w3.org/2000/svg" xmlns:xlink="http://www.w3.org/1999/xlink" version="1.1" viewBox="0 0 252.7 70.79">
  <!-- Generator: Adobe Illustrator 29.5.1, SVG Export Plug-In . SVG Version: 2.1.0 Build 141)  -->
  <defs>
    <style>
      .st0 {
        fill: url(#_未命名的渐变_4);
      }

      .st1 {
        fill: #231815;
      }

      .st2 {
        fill: url(#_未命名的渐变_41);
      }

      .st3 {
        fill: url(#_未命名的渐变_44);
      }

      .st4 {
        fill: url(#_未命名的渐变_43);
      }

      .st5 {
        fill: url(#_未命名的渐变_46);
      }

      .st6 {
        fill: url(#_未命名的渐变_42);
      }

      .st7 {
        fill: url(#_未命名的渐变_45);
      }

      .st8 {
        fill: url(#_未命名的渐变_47);
      }
    </style>
    <linearGradient id="_未命名的渐变_4" data-name="未命名的渐变 4" x1="-.24" y1="38.82" x2="219.46" y2="56.54" gradientUnits="userSpaceOnUse">
      <stop offset="0" stop-color="#00a29a"/>
      <stop offset=".99" stop-color="#036eb8"/>
    </linearGradient>
    <linearGradient id="_未命名的渐变_41" data-name="未命名的渐变 4" x1="2.69" y1="2.38" x2="222.38" y2="20.1" xlink:href="#_未命名的渐变_4"/>
    <linearGradient id="_未命名的渐变_42" data-name="未命名的渐变 4" x1="-.58" y1="42.99" x2="219.12" y2="60.7" xlink:href="#_未命名的渐变_4"/>
    <linearGradient id="_未命名的渐变_43" data-name="未命名的渐变 4" x1="2.37" y1="6.29" x2="222.07" y2="24.01" xlink:href="#_未命名的渐变_4"/>
    <linearGradient id="_未命名的渐变_44" data-name="未命名的渐变 4" x1="1.42" y1="17.27" x2="221.19" y2="35" xlink:href="#_未命名的渐变_4"/>
    <linearGradient id="_未命名的渐变_45" data-name="未命名的渐变 4" x1="1.08" y1="21.51" x2="220.88" y2="39.23" xlink:href="#_未命名的渐变_4"/>
    <linearGradient id="_未命名的渐变_46" data-name="未命名的渐变 4" x1="1.64" y1="13.69" x2="222.14" y2="31.47" xlink:href="#_未命名的渐变_4"/>
    <linearGradient id="_未命名的渐变_47" data-name="未命名的渐变 4" x1="-1.54" y1="53.09" x2="218.96" y2="70.87" xlink:href="#_未命名的渐变_4"/>
  </defs>
  <polygon class="st1" points="-3118.79 173.15 -3118.86 173.11 -3059.16 76.88 -3041.84 87.62 -3094.89 173.15 -3118.79 173.15"/>
  <polygon class="st0" points="133.24 59.36 133.24 42 165.34 42 171.73 30.57 133.24 30.57 121.81 30.57 121.81 42 121.81 59.36 121.81 70.79 133.24 70.79 149.33 70.79 155.79 59.36 133.24 59.36"/>
  <polygon class="st2" points="133.24 14.2 158.81 14.2 165.11 2.77 121.81 2.77 121.81 14.2 133.24 25.63 133.24 14.2"/>
  <polygon class="st6" points="71.68 30.57 71.68 42 71.68 59.36 71.68 70.79 83.11 70.79 117.77 70.79 117.77 59.36 83.11 59.36 83.11 42 117.77 42 117.9 30.57 83.11 30.57 71.68 30.57"/>
  <polygon class="st4" points="83.11 14.2 111 14.2 117.77 2.77 71.68 2.77 71.68 14.2 83.11 25.63 83.11 14.2"/>
  <polygon class="st3" points="212.52 0 205.96 11.68 239.72 70.79 252.7 70.79 212.52 0"/>
  <polygon class="st7" points="198.94 32.66 209 49.86 178.88 49.86 199.99 11.64 193.3 .13 154.28 70.72 154.32 70.75 167.31 70.79 172.56 61.29 215.68 61.29 221.23 70.78 234.28 70.79 234.25 70.72 205.5 20.98 198.94 32.66"/>
  <path class="st5" d="M37.66,10.75c8.67,0,16.37,3.91,21.28,9.97l8.61-6.99C60.55,5.37,49.77,0,37.66,0,18.73,0,3.03,13.11.04,30.29h11.53c2.83-11.21,13.43-19.54,26.09-19.54Z"/>
  <path class="st8" d="M37.66,60.03c-13.04,0-23.91-8.85-26.32-20.57H-.12c2.53,17.69,18.48,31.32,37.78,31.32,12.3,0,23.22-5.54,30.2-14.12l-8.46-7.2c-4.87,6.4-12.79,10.56-21.74,10.56Z"/>
</svg>